<?xml version="1.0" standalone="no"?>
<!DOCTYPE svg PUBLIC "-//W3C//DTD SVG 20010904//EN"
 "http://www.w3.org/TR/2001/REC-SVG-20010904/DTD/svg10.dtd">
<svg version="1.0" xmlns="http://www.w3.org/2000/svg"
 width="260.000000pt" height="260.000000pt" viewBox="0 0 260.000000 260.000000"
 preserveAspectRatio="xMidYMid meet">
<metadata>
Created by potrace 1.11, written by Peter Selinger 2001-2013
</metadata>
<g transform="translate(0.000000,260.000000) scale(0.100000,-0.100000)"
fill="#000000" stroke="none">
<path d="M1165 2338 c-2 -7 -32 -123 -65 -258 -34 -135 -65 -262 -71 -282
l-10 -38 -214 0 -215 0 0 -105 0 -105 191 0 c177 0 190 -1 185 -17 -3 -10 -26
-101 -51 -203 -25 -102 -50 -200 -56 -217 l-11 -33 -209 0 -209 0 0 -110 0
-110 180 0 c117 0 180 -4 180 -10 0 -10 -123 -511 -136 -553 -5 -16 3 -17 107
-15 l112 3 67 260 c37 143 70 272 74 288 l6 27 170 0 c110 0 170 -4 170 -10 0
-10 -123 -510 -136 -552 -5 -16 5 -18 108 -18 l113 0 64 258 c35 141 68 272
73 289 l9 33 205 0 205 0 -3 108 -3 107 -172 3 c-113 2 -173 6 -173 13 0 6 25
111 57 235 l56 224 199 0 198 0 0 105 0 105 -170 0 c-110 0 -170 4 -170 10 0
6 32 136 70 290 39 154 70 282 70 285 0 3 -50 4 -112 3 l-112 -3 -66 -265
c-37 -146 -70 -277 -73 -292 l-7 -28 -170 0 c-110 0 -170 4 -170 10 0 6 32
136 70 290 39 154 70 282 70 285 0 3 -50 5 -110 5 -80 0 -112 -4 -115 -12z
m368 -815 c-3 -16 -30 -120 -58 -233 l-51 -205 -172 -3 c-95 -1 -172 1 -172 5
0 5 26 110 57 235 l58 228 173 0 172 0 -7 -27z"/>
</g>
</svg>
